<svg width="165" height="30" viewBox="0 0 165 30" fill="none" xmlns="http://www.w3.org/2000/svg">
<path d="M0 19.4031V0H2.38658V19.4031H0Z" fill="#23336C"/>
<path d="M7.04688 5.68623H9.19567V8.22246C10.2789 6.1651 12.4277 5.5 16.1088 5.5C21.4896 5.5 23.6384 6.64396 23.6384 10.466V19.4049H21.4896V11.0513C21.4896 9.80095 21.4104 8.96736 20.5914 8.38208C19.8516 7.85 18.1519 7.53076 15.5012 7.53076C11.1067 7.53076 9.19567 8.46189 9.19567 11.211V19.4049H7.04688V5.68623Z" fill="#23336C"/>
<path d="M28.9031 7.6353H26.041V5.68435H28.9031V4.70001C28.9031 1.41887 30.4443 0 33.8877 0H37.3574V1.97755H33.9669C31.9238 1.97755 31.0519 2.56283 31.0519 4.30095V5.68435H37.3574V7.6353H31.0519V19.4031H28.9031V7.6353Z" fill="#23336C"/>
<path d="M39.2461 0H41.4213V2.58944H39.2461V0ZM39.2461 5.68435H41.4213V19.4031H39.2461V5.68435Z" fill="#23336C"/>
<path d="M45.7598 5.68623H47.9086V8.22246C48.9918 6.1651 51.1406 5.5 54.8217 5.5C60.2025 5.5 62.3513 6.64396 62.3513 10.466V19.4049H60.2025V11.0513C60.2025 9.80095 60.1233 8.96736 59.3042 8.38208C58.5645 7.85 56.8648 7.53076 54.2141 7.53076C49.8196 7.53076 47.9086 8.46189 47.9086 11.211V19.4049H45.7598V5.68623Z" fill="#23336C"/>
<path d="M66.5879 0H68.7631V2.58944H66.5879V0ZM66.5879 5.68435H68.7631V19.4031H66.5879V5.68435Z" fill="#23336C"/>
<path d="M89.1037 10.5459V19.4049H87.0341V17.587C86.2416 19.2098 84.7268 19.5912 82.2346 19.5912H78.6063C73.9124 19.5912 72.3008 18.4206 72.3008 15.1306C72.3008 11.9825 74.0004 10.8917 78.5534 10.8917H82.3667C84.5419 10.8917 86.0478 11.344 87.0341 12.5145V10.6434C87.0341 8.16038 85.8188 7.54849 82.6309 7.54849H79.3989C76.4839 7.54849 75.5064 7.73472 75.5064 9.41963V9.81869H73.2255V9.44623C73.2255 6.61736 75.0044 5.5 79.0554 5.5H82.9743C87.1751 5.5 89.1037 7.05189 89.1037 10.5459ZM86.9109 14.5719C86.9109 13.0555 85.4842 12.754 82.4283 12.754H79.1699C75.8058 12.754 74.6609 13.02 74.6609 15.0242C74.6609 17.2944 75.5592 17.5604 79.1699 17.5604H82.4283C85.4754 17.5604 86.9109 17.2944 86.9109 15.7691V14.5719Z" fill="#23336C"/>
<path d="M105.194 5.68718V7.53171H96.2111V14.7325C96.2111 17.4283 97.4 17.6678 100.236 17.6678C103.256 17.6678 103.758 17.0293 103.758 14.8921V13.1274H105.643V14.8921C105.643 18.4127 104.075 19.5921 99.7337 19.5921C97.6113 19.5921 96.1318 19.2463 95.1191 18.2264C94.168 17.2953 94.1415 16.1425 94.1415 14.5995V7.53171H91.2266V5.68718H94.1415V2.53906H96.2375V5.68718H105.194Z" fill="#23336C"/>
<path d="M125.328 11.9502C125.328 12.296 125.328 12.6419 125.301 13.0143H110.41V13.7592C110.41 16.5881 111.546 17.6522 115.103 17.6522H118.652C121.647 17.6522 123.082 16.9339 123.082 15.3288V15.1958H125.337V15.5417C125.337 18.1577 123.241 19.5677 119.163 19.5677H115.086C110.154 19.5677 108.252 17.8562 108.252 13.6439V11.4536C108.252 7.18808 110.137 5.47656 115.086 5.47656H118.476C123.505 5.4943 125.328 7.07279 125.328 11.9502ZM123.056 11.0456V10.7264C123.056 8.00393 121.735 7.49845 118.415 7.49845H115.051C111.819 7.49845 110.41 8.29657 110.41 11.0456H123.056Z" fill="#23336C"/>
<path d="M138.316 7.50415H135.137C132.196 7.50415 130.707 8.22246 130.707 10.5991V13.7738C130.707 16.8155 131.87 17.5604 135.19 17.5604H138.422C141.628 17.5604 142.869 16.9219 142.869 14.3857V14.2261H144.912V14.5985C144.912 18.0925 143.081 19.5912 138.924 19.5912H135.031C130.663 19.5912 128.541 17.9062 128.541 14.2793V10.8119C128.541 7.18491 130.637 5.5 135.031 5.5H138.263C142.737 5.5 144.727 6.69717 144.727 10.0847V10.4306H142.711C142.684 7.8234 141.522 7.50415 138.316 7.50415Z" fill="#23336C"/>
<path d="M148.41 0H150.559V8.22058C151.642 6.16322 153.791 5.49812 157.472 5.49812C162.853 5.49812 165.002 6.64209 165.002 10.4642V19.4031H162.853V11.0495C162.853 9.74587 162.721 8.93888 161.955 8.3802C161.241 7.84813 159.542 7.52888 156.864 7.52888C152.461 7.52888 150.559 8.46002 150.559 11.2091V19.4031H148.41V0Z" fill="#23336C"/>
<path d="M74.9019 27.0984C74.9019 27.1693 74.9019 27.2402 74.9019 27.3112H72.5241V27.4619C72.5241 28.0206 72.7091 28.2334 73.2727 28.2334H73.8363C74.3119 28.2334 74.5408 28.0916 74.5408 27.7723V27.7457H74.9019V27.8167C74.9019 28.331 74.5673 28.6148 73.9156 28.6148H73.2639C72.4801 28.6148 72.1719 28.2778 72.1719 27.4353V27.0008C72.1719 26.1495 72.4713 25.8125 73.2639 25.8125H73.8099C74.6113 25.8125 74.9019 26.1229 74.9019 27.0984ZM74.5408 26.9121V26.8501C74.5408 26.3091 74.3295 26.2116 73.8011 26.2116H73.2639C72.7443 26.2116 72.5241 26.3712 72.5241 26.9121H74.5408Z" fill="black"/>
<path d="M75.4824 28.5793V25.8568H75.8171V26.2027C75.958 25.8923 76.2662 25.8214 76.7946 25.8214C77.3582 25.8214 77.6753 25.91 77.8162 26.318C77.9571 25.9721 78.2741 25.8125 78.7673 25.8125C79.6127 25.8125 79.9562 26.0697 79.9562 26.8057V28.5793H79.6391V26.921C79.6391 26.6638 79.6303 26.4953 79.4982 26.3889C79.3925 26.2914 79.1459 26.2293 78.7849 26.2293C78.1948 26.2293 77.9218 26.4066 77.9218 26.8944V28.5793H77.5872V26.8855C77.5872 26.3623 77.4375 26.2204 76.7594 26.2204C76.0989 26.2204 75.8171 26.4067 75.8171 26.9299V28.5793H75.4824Z" fill="black"/>
<path d="M82.2973 25.8214C83.0635 25.8214 83.3365 26.1672 83.3365 27.0185V27.4442C83.3365 28.2689 83.037 28.6059 82.2973 28.6059H81.628C81.311 28.6059 81.0996 28.4995 80.9499 28.2246V29.4838H80.6152V25.848H80.9147V26.2914C81.0468 25.9012 81.2933 25.8125 81.7161 25.8125H82.2973V25.8214ZM80.9499 27.0717V27.391C80.9499 28.065 81.126 28.2157 81.7337 28.2157H82.218C82.8257 28.2157 83.0018 28.065 83.0018 27.391V27.0717C83.0018 26.38 82.8257 26.2204 82.218 26.2204H81.7337C81.1172 26.2204 80.9499 26.38 80.9499 27.0717Z" fill="black"/>
<path d="M83.8652 27.4077V26.982C83.8652 26.1573 84.1647 25.8203 84.9044 25.8203H85.653C86.4015 25.8203 86.6921 26.1573 86.6921 26.982V27.4077C86.6921 28.259 86.4103 28.6048 85.653 28.6048H84.9044C84.147 28.6048 83.8652 28.259 83.8652 27.4077ZM85.5649 28.2058C86.1726 28.2058 86.3487 28.055 86.3487 27.3633V27.0441C86.3487 26.3701 86.1637 26.2194 85.5649 26.2194H85.0013C84.3936 26.2194 84.2175 26.3701 84.2175 27.0441V27.3633C84.2175 28.055 84.3936 28.2058 85.0013 28.2058H85.5649Z" fill="black"/>
<path d="M86.9766 25.8594H87.3729L88.1919 28.2005L88.8524 25.8594H89.3807L90.0412 28.2005L90.8955 25.8594H91.2742L90.2526 28.5818H89.777L89.1166 26.2318L88.4296 28.5818H87.9541L86.9766 25.8594Z" fill="black"/>
<path d="M94.2847 27.0984C94.2847 27.1693 94.2847 27.2402 94.2847 27.3112H91.907V27.4619C91.907 28.0206 92.0919 28.2334 92.6555 28.2334H93.2191C93.6947 28.2334 93.9237 28.0916 93.9237 27.7723V27.7457H94.2847V27.8167C94.2847 28.331 93.9501 28.6148 93.2984 28.6148H92.6467C91.8629 28.6148 91.5547 28.2778 91.5547 27.4353V27.0008C91.5547 26.1495 91.8541 25.8125 92.6467 25.8125H93.1927C93.9853 25.8125 94.2847 26.1229 94.2847 27.0984ZM93.9148 26.9121V26.8501C93.9148 26.3091 93.7035 26.2116 93.1751 26.2116H92.6379C92.1183 26.2116 91.8981 26.3712 91.8981 26.9121H93.9148Z" fill="black"/>
<path d="M94.8584 25.8834H95.1931V26.2825C95.3516 25.8923 95.6246 25.8125 96.1001 25.8125C96.8135 25.8125 97.0953 26.0342 97.0953 26.717V27.0806H96.7694V26.8234C96.7694 26.3357 96.6109 26.2116 96.0033 26.2116C95.4573 26.2116 95.2019 26.3978 95.2019 26.8767V28.5616H94.8496V25.8834H94.8584Z" fill="black"/>
<path d="M97.5879 24.7266H97.9313V25.2409H97.5879V24.7266ZM97.5879 25.8617H97.9313V28.5841H97.5879V25.8617Z" fill="black"/>
<path d="M98.6367 25.8558H98.9802V26.3613C99.1563 25.9533 99.4998 25.8203 100.081 25.8203C100.944 25.8203 101.287 26.0509 101.287 26.8047V28.5782H100.944V26.9199C100.944 26.6716 100.935 26.5031 100.803 26.3879C100.689 26.2814 100.416 26.2194 99.9929 26.2194C99.2884 26.2194 98.989 26.4056 98.989 26.9465V28.5694H98.6455V25.8558H98.6367Z" fill="black"/>
<path d="M103.549 29.536H102.906C102.237 29.536 101.92 29.2522 101.902 28.6226H102.246C102.246 29.0128 102.466 29.1103 102.968 29.1103H103.514C104.06 29.1103 104.254 28.9862 104.254 28.4807V28.055C104.078 28.3743 103.901 28.4364 103.593 28.4364H102.915C102.184 28.4364 101.885 28.0994 101.885 27.2924V26.9643C101.885 26.1573 102.193 25.8203 102.924 25.8203H103.399C103.84 25.8203 104.113 25.8558 104.263 26.246V25.8558H104.58V28.525C104.58 29.199 104.227 29.536 103.549 29.536ZM103.505 28.0462C104.034 28.0462 104.254 27.922 104.254 27.3545V26.9022C104.254 26.3435 104.034 26.2105 103.505 26.2105H102.959C102.431 26.2105 102.211 26.3347 102.211 26.9022V27.3545C102.211 27.9131 102.431 28.0462 102.959 28.0462H103.505Z" fill="black"/>
<path d="M107.248 24.7266H107.592V25.2409H107.248V24.7266ZM107.248 25.8617H107.592V28.5841H107.248V25.8617Z" fill="black"/>
<path d="M108.295 25.8558H108.638V26.3613C108.815 25.9533 109.158 25.8203 109.739 25.8203C110.602 25.8203 110.946 26.0509 110.946 26.8047V28.5782H110.602V26.9199C110.602 26.6716 110.593 26.5031 110.461 26.3879C110.347 26.2814 110.074 26.2194 109.651 26.2194C108.947 26.2194 108.647 26.4056 108.647 26.9465V28.5694H108.304V25.8558H108.295Z" fill="black"/>
<path d="M111.609 25.8558H111.953V26.3613C112.129 25.9533 112.472 25.8203 113.054 25.8203C113.917 25.8203 114.26 26.0509 114.26 26.8047V28.5782H113.917V26.9199C113.917 26.6716 113.908 26.5031 113.776 26.3879C113.661 26.2814 113.388 26.2194 112.966 26.2194C112.261 26.2194 111.962 26.4056 111.962 26.9465V28.5694H111.618V25.8558H111.609Z" fill="black"/>
<path d="M114.857 27.4077V26.982C114.857 26.1573 115.157 25.8203 115.897 25.8203H116.645C117.394 25.8203 117.684 26.1573 117.684 26.982V27.4077C117.684 28.259 117.403 28.6048 116.645 28.6048H115.897C115.13 28.6048 114.857 28.259 114.857 27.4077ZM116.548 28.2058C117.156 28.2058 117.332 28.055 117.332 27.3633V27.0441C117.332 26.3701 117.147 26.2194 116.548 26.2194H115.985C115.377 26.2194 115.201 26.3701 115.201 27.0441V27.3633C115.201 28.055 115.377 28.2058 115.985 28.2058H116.548Z" fill="black"/>
<path d="M117.957 25.8594H118.345L119.357 28.1739L120.379 25.8594H120.766L119.56 28.5818H119.128L117.957 25.8594Z" fill="black"/>
<path d="M123.67 26.8146V28.5704H123.336V28.2068C123.212 28.5261 122.966 28.6059 122.57 28.6059H121.988C121.24 28.6059 120.984 28.3753 120.984 27.7191C120.984 27.0984 121.257 26.8767 121.98 26.8767H122.587C122.931 26.8767 123.177 26.9653 123.336 27.1959V26.8234C123.336 26.3357 123.142 26.2116 122.631 26.2116H122.112C121.645 26.2116 121.486 26.247 121.486 26.584V26.6638H121.125V26.5929C121.125 26.0342 121.407 25.8125 122.059 25.8125H122.684C123.362 25.8125 123.67 26.1229 123.67 26.8146ZM123.327 27.6127C123.327 27.3112 123.098 27.2491 122.614 27.2491H122.094C121.557 27.2491 121.372 27.3023 121.372 27.7014C121.372 28.1536 121.513 28.2068 122.094 28.2068H122.614C123.098 28.2068 123.327 28.1536 123.327 27.8521V27.6127Z" fill="black"/>
<path d="M126.243 25.8619V26.2255H124.807V27.6532C124.807 28.1853 125.001 28.2385 125.45 28.2385C125.934 28.2385 126.014 28.1143 126.014 27.6887V27.3428H126.313V27.6887C126.313 28.3893 126.067 28.6198 125.371 28.6198C125.036 28.6198 124.798 28.5489 124.631 28.3538C124.481 28.1676 124.473 27.9459 124.473 27.6355V26.2343H124.006V25.8708H124.473V25.25H124.807V25.8708H126.243V25.8619Z" fill="black"/>
<path d="M126.818 24.7266H127.162V25.2409H126.818V24.7266ZM126.818 25.8617H127.162V28.5841H126.818V25.8617Z" fill="black"/>
<path d="M127.795 27.4077V26.982C127.795 26.1573 128.094 25.8203 128.834 25.8203H129.583C130.331 25.8203 130.622 26.1573 130.622 26.982V27.4077C130.622 28.259 130.34 28.6048 129.583 28.6048H128.834C128.077 28.6048 127.795 28.259 127.795 27.4077ZM129.495 28.2058C130.102 28.2058 130.278 28.055 130.278 27.3633V27.0441C130.278 26.3701 130.093 26.2194 129.495 26.2194H128.931C128.323 26.2194 128.147 26.3701 128.147 27.0441V27.3633C128.147 28.055 128.323 28.2058 128.931 28.2058H129.495Z" fill="black"/>
<path d="M131.236 25.8558H131.58V26.3613C131.756 25.9533 132.099 25.8203 132.681 25.8203C133.544 25.8203 133.887 26.0509 133.887 26.8047V28.5782H133.544V26.9199C133.544 26.6716 133.535 26.5031 133.403 26.3879C133.288 26.2814 133.015 26.2194 132.593 26.2194C131.888 26.2194 131.589 26.4056 131.589 26.9465V28.5694H131.245V25.8558H131.236Z" fill="black"/>
<path d="M138.483 25.8619V26.2255H137.047V27.6532C137.047 28.1853 137.241 28.2385 137.69 28.2385C138.175 28.2385 138.254 28.1143 138.254 27.6887V27.3428H138.553V27.6887C138.553 28.3893 138.307 28.6198 137.611 28.6198C137.276 28.6198 137.039 28.5489 136.871 28.3538C136.722 28.1676 136.713 27.9459 136.713 27.6355V26.2343H136.246V25.8708H136.713V25.25H137.047V25.8708H138.483V25.8619Z" fill="black"/>
<path d="M139.037 24.7266H139.381V26.3583C139.557 25.9503 139.9 25.8173 140.481 25.8173C141.344 25.8173 141.688 26.0479 141.688 26.8017V28.5752H141.344V26.9169C141.344 26.6598 141.327 26.5001 141.204 26.3849C141.089 26.2785 140.816 26.2164 140.393 26.2164C139.689 26.2164 139.389 26.4026 139.389 26.9435V28.5664H139.046V24.7266H139.037Z" fill="black"/>
<path d="M142.354 25.8834H142.688V26.2825C142.847 25.8923 143.12 25.8125 143.595 25.8125C144.309 25.8125 144.59 26.0342 144.59 26.717V27.0806H144.265V26.8234C144.265 26.3357 144.106 26.2116 143.498 26.2116C142.952 26.2116 142.697 26.3978 142.697 26.8767V28.5616H142.354V25.8834Z" fill="black"/>
<path d="M145.002 27.4077V26.982C145.002 26.1573 145.301 25.8203 146.041 25.8203H146.79C147.538 25.8203 147.829 26.1573 147.829 26.982V27.4077C147.829 28.259 147.547 28.6048 146.79 28.6048H146.041C145.275 28.6048 145.002 28.259 145.002 27.4077ZM146.693 28.2058C147.3 28.2058 147.477 28.055 147.477 27.3633V27.0441C147.477 26.3701 147.292 26.2194 146.693 26.2194H146.129C145.522 26.2194 145.345 26.3701 145.345 27.0441V27.3633C145.345 28.055 145.522 28.2058 146.129 28.2058H146.693Z" fill="black"/>
<path d="M151.08 28.5673H150.745V28.0529C150.551 28.4963 150.234 28.6027 149.688 28.6027C148.799 28.6027 148.42 28.3544 148.42 27.6184V25.8448H148.763V27.4854C148.763 27.7514 148.781 27.911 148.904 28.0263C149.028 28.1416 149.309 28.1948 149.741 28.1948C150.401 28.1948 150.718 28.0086 150.718 27.5297V25.8359H151.071V28.5673H151.08Z" fill="black"/>
<path d="M153.362 29.536H152.719C152.05 29.536 151.732 29.2522 151.715 28.6226H152.058C152.058 29.0128 152.278 29.1103 152.78 29.1103H153.326C153.872 29.1103 154.066 28.9862 154.066 28.4807V28.055C153.89 28.3743 153.714 28.4364 153.406 28.4364H152.728C151.997 28.4364 151.697 28.0994 151.697 27.2924V26.9643C151.697 26.1573 152.005 25.8203 152.736 25.8203H153.212C153.652 25.8203 153.925 25.8558 154.075 26.246V25.8558H154.392V28.525C154.392 29.199 154.049 29.536 153.362 29.536ZM153.326 28.0462C153.855 28.0462 154.075 27.922 154.075 27.3545V26.9022C154.075 26.3435 153.855 26.2105 153.326 26.2105H152.78C152.252 26.2105 152.032 26.3347 152.032 26.9022V27.3545C152.032 27.9131 152.252 28.0462 152.78 28.0462H153.326Z" fill="black"/>
<path d="M155.039 24.7266H155.383V26.3583C155.559 25.9503 155.902 25.8173 156.483 25.8173C157.346 25.8173 157.69 26.0479 157.69 26.8017V28.5752H157.346V26.9169C157.346 26.6598 157.329 26.5001 157.205 26.3849C157.091 26.2785 156.818 26.2164 156.395 26.2164C155.691 26.2164 155.391 26.4026 155.391 26.9435V28.5664H155.048V24.7266H155.039Z" fill="black"/>
<path d="M161.806 24.7266H162.317L164.105 28.5752H163.7L163.295 27.7239H160.846L160.45 28.5752H160.01L161.806 24.7266ZM163.11 27.3249L162.062 25.1168L161.031 27.3249H163.11Z" fill="black"/>
<path d="M164.48 28.5752V24.7266H164.859V28.5752H164.48Z" fill="black"/>
</svg>
