<svg width="208" height="42" viewBox="0 0 208 42" fill="none" xmlns="http://www.w3.org/2000/svg">
<path d="M0 24.5773V0H3.00854V24.5773H0Z" fill="white"/>
<path d="M8.88281 7.20074H11.5916V10.4133C12.9571 7.8073 15.6659 6.96484 20.3063 6.96484C27.0894 6.96484 29.7982 8.41386 29.7982 13.2551V24.5777H27.0894V13.9965C27.0894 12.4127 26.9896 11.3568 25.9571 10.6155C25.0245 9.94151 22.8819 9.53714 19.5404 9.53714C14.0006 9.53714 11.5916 10.7166 11.5916 14.1988V24.5777H8.88281V7.20074Z" fill="white"/>
<path d="M36.4361 9.67138H32.8281V7.20018H36.4361V5.95335C36.4361 1.79723 38.379 0 42.7197 0H47.0936V2.5049H42.8196C40.244 2.5049 39.1449 3.24625 39.1449 5.44787V7.20018H47.0936V9.67138H39.1449V24.5773H36.4361V9.67138Z" fill="white"/>
<path d="M49.4766 0H52.2186V3.27996H49.4766V0ZM49.4766 7.20018H52.2186V24.5773H49.4766V7.20018Z" fill="white"/>
<path d="M57.6875 7.20074H60.3963V10.4133C61.7618 7.8073 64.4706 6.96484 69.111 6.96484C75.8941 6.96484 78.6028 8.41386 78.6028 13.2551V24.5777H75.8941V13.9965C75.8941 12.4127 75.7942 11.3568 74.7617 10.6155C73.8292 9.94151 71.6865 9.53714 68.345 9.53714C62.8053 9.53714 60.3963 10.7166 60.3963 14.1988V24.5777H57.6875V7.20074Z" fill="white"/>
<path d="M83.9375 0H86.6796V3.27996H83.9375V0ZM83.9375 7.20018H86.6796V24.5773H83.9375V7.20018Z" fill="white"/>
<path d="M112.322 13.3563V24.5777H109.714V22.275C108.714 24.3306 106.805 24.8137 103.663 24.8137H99.0894C93.1722 24.8137 91.1406 23.3309 91.1406 19.1636C91.1406 15.176 93.2832 13.7943 99.0227 13.7943H103.83C106.572 13.7943 108.47 14.3672 109.714 15.8499V13.4798C109.714 10.3347 108.181 9.5596 104.163 9.5596H100.089C96.4139 9.5596 95.1816 9.79549 95.1816 11.9297V12.4352H92.3063V11.9634C92.3063 8.38017 94.5488 6.96484 99.6555 6.96484H104.596C109.891 6.96484 112.322 8.93057 112.322 13.3563ZM109.558 18.4559C109.558 16.5351 107.76 16.1532 103.907 16.1532H99.7999C95.5591 16.1532 94.1158 16.4902 94.1158 19.0288C94.1158 21.9044 95.2482 22.2414 99.7999 22.2414H103.907C107.749 22.2414 109.558 21.9044 109.558 19.9724V18.4559Z" fill="white"/>
<path d="M132.607 7.20246V9.53887H121.283V18.6599C121.283 22.0745 122.782 22.3779 126.357 22.3779C130.164 22.3779 130.797 21.5691 130.797 18.862V16.6267H133.173V18.862C133.173 23.3215 131.197 24.8154 125.724 24.8154C123.049 24.8154 121.184 24.3773 119.907 23.0855C118.708 21.9061 118.675 20.4459 118.675 18.4914V9.53887H115V7.20246H118.675V3.21484H121.317V7.20246H132.607Z" fill="white"/>
<path d="M157.987 15.1374C157.987 15.5755 157.987 16.0136 157.953 16.4853H139.181V17.4288C139.181 21.0121 140.613 22.36 145.097 22.36H149.571C153.347 22.36 155.156 21.4501 155.156 19.417V19.2485H157.998V19.6867C157.998 23.0003 155.356 24.7863 150.215 24.7863H145.076C138.859 24.7863 136.461 22.6184 136.461 17.2828V14.5084C136.461 9.10542 138.837 6.9375 145.076 6.9375H149.349C155.689 6.95997 157.987 8.95939 157.987 15.1374ZM155.123 13.9916V13.5873C155.123 10.1388 153.458 9.49856 149.272 9.49856H145.032C140.958 9.49856 139.181 10.5095 139.181 13.9916H155.123Z" fill="white"/>
<path d="M174.361 9.50343H170.354C166.647 9.50343 164.77 10.4133 164.77 13.4237V17.445C164.77 21.2978 166.236 22.2414 170.421 22.2414H174.495C178.537 22.2414 180.101 21.4326 180.101 18.2201V18.0179H182.676V18.4896C182.676 22.9153 180.368 24.8137 175.128 24.8137H170.22C164.714 24.8137 162.039 22.6794 162.039 18.0853V13.6933C162.039 9.09906 164.681 6.96484 170.22 6.96484H174.295C179.935 6.96484 182.443 8.48126 182.443 12.7721V13.2103H179.902C179.868 9.90782 178.403 9.50343 174.361 9.50343Z" fill="white"/>
<path d="M187.086 0H189.795V10.4127C191.16 7.80675 193.869 6.96429 198.51 6.96429C205.293 6.96429 208.002 8.41331 208.002 13.2547V24.5773H205.293V13.996C205.293 12.3448 205.126 11.3226 204.161 10.6149C203.261 9.94097 201.119 9.53658 197.743 9.53658C192.193 9.53658 189.795 10.716 189.795 14.1982V24.5773H187.086V0Z" fill="white"/>
<path d="M62.4127 36.5902C62.4127 36.7477 62.4127 36.9051 62.4127 37.0628H58.5693V37.3975C58.5693 38.6383 58.8683 39.1109 59.7793 39.1109H60.6903C61.4591 39.1109 61.8291 38.796 61.8291 38.0869V38.0278H62.4127V38.1855C62.4127 39.3277 61.8719 39.958 60.8185 39.958H59.7651C58.4982 39.958 58 39.2095 58 37.3384V36.3735C58 34.4828 58.4839 33.7344 59.7651 33.7344H60.6476C61.943 33.7344 62.4127 34.4237 62.4127 36.5902ZM61.8291 36.1765V36.0388C61.8291 34.8373 61.4875 34.6207 60.6334 34.6207H59.7651C58.9252 34.6207 58.5693 34.9752 58.5693 36.1765H61.8291Z" fill="white"/>
<path d="M63.3594 39.8791V33.8328H63.9004V34.601C64.1281 33.9116 64.6263 33.7541 65.4804 33.7541C66.3914 33.7541 66.9039 33.9509 67.1317 34.857C67.3594 34.0888 67.8718 33.7344 68.669 33.7344C70.0355 33.7344 70.5907 34.3056 70.5907 35.9402V39.8791H70.0782V36.1962C70.0782 35.625 70.064 35.2508 69.8504 35.0145C69.6796 34.798 69.281 34.66 68.6975 34.66C67.7436 34.66 67.3024 35.0538 67.3024 36.1371V39.8791H66.7615V36.1174C66.7615 34.9554 66.5196 34.6403 65.4235 34.6403C64.3559 34.6403 63.9004 35.054 63.9004 36.216V39.8791H63.3594Z" fill="white"/>
<path d="M74.3752 33.7541C75.6136 33.7541 76.0549 34.5221 76.0549 36.4128V37.3582C76.0549 39.1898 75.5708 39.9382 74.3752 39.9382H73.2933C72.7809 39.9382 72.4392 39.7019 72.1973 39.0914V41.8879H71.6562V33.8132H72.1404V34.798C72.3539 33.9314 72.7523 33.7344 73.4357 33.7344H74.3752V33.7541ZM72.1973 36.5309V37.24C72.1973 38.7369 72.4819 39.0716 73.4642 39.0716H74.247C75.2293 39.0716 75.5139 38.7369 75.5139 37.24V36.5309C75.5139 34.9947 75.2293 34.6403 74.247 34.6403H73.4642C72.4677 34.6403 72.1973 34.9947 72.1973 36.5309Z" fill="white"/>
<path d="M76.8984 37.2715V36.3261C76.8984 34.4945 77.3826 33.7461 78.5782 33.7461H79.7882C80.9981 33.7461 81.4678 34.4945 81.4678 36.3261V37.2715C81.4678 39.1622 81.0123 39.9301 79.7882 39.9301H78.5782C77.3539 39.9301 76.8984 39.1622 76.8984 37.2715ZM79.6458 39.044C80.6281 39.044 80.9127 38.7091 80.9127 37.1729V36.464C80.9127 34.9671 80.6137 34.6325 79.6458 34.6325H78.7348C77.7525 34.6325 77.4679 34.9671 77.4679 36.464V37.1729C77.4679 38.7091 77.7525 39.044 78.7348 39.044H79.6458Z" fill="white"/>
<path d="M81.9297 33.8359H82.5703L83.8941 39.0353L84.9617 33.8359H85.8156L86.8832 39.0353L88.2641 33.8359H88.8762L87.225 39.8821H86.4562L85.3887 34.663L84.2783 39.8821H83.5097L81.9297 33.8359Z" fill="white"/>
<path d="M93.7408 36.5902C93.7408 36.7477 93.7408 36.9051 93.7408 37.0628H89.8976V37.3975C89.8976 38.6383 90.1964 39.1109 91.1074 39.1109H92.0184C92.7872 39.1109 93.1573 38.796 93.1573 38.0869V38.0278H93.7408V38.1855C93.7408 39.3277 93.2 39.958 92.1466 39.958H91.0932C89.8263 39.958 89.3281 39.2095 89.3281 37.3384V36.3735C89.3281 34.4828 89.8121 33.7344 91.0932 33.7344H91.9758C93.2569 33.7344 93.7408 34.4237 93.7408 36.5902ZM93.1429 36.1765V36.0388C93.1429 34.8373 92.8014 34.6207 91.9473 34.6207H91.079C90.2391 34.6207 89.8832 34.9752 89.8832 36.1765H93.1429Z" fill="white"/>
<path d="M94.6783 33.8918H95.2193V34.7782C95.4755 33.9116 95.9168 33.7344 96.6853 33.7344C97.8385 33.7344 98.294 34.2267 98.294 35.7432V36.5507H97.7672V35.9795C97.7672 34.8963 97.511 34.6207 96.5289 34.6207C95.6463 34.6207 95.2335 35.0343 95.2335 36.0978V39.8398H94.6641V33.8918H94.6783Z" fill="white"/>
<path d="M99.0938 31.3203H99.6488V32.4625H99.0938V31.3203ZM99.0938 33.8412H99.6488V39.8874H99.0938V33.8412Z" fill="white"/>
<path d="M100.789 33.8249H101.344V34.9476C101.629 34.0415 102.184 33.7461 103.124 33.7461C104.519 33.7461 105.073 34.2582 105.073 35.9323V39.8711H104.519V36.1882C104.519 35.6367 104.504 35.2625 104.291 35.0067C104.106 34.7701 103.665 34.6325 102.981 34.6325C101.842 34.6325 101.359 35.046 101.359 36.2473V39.8515H100.803V33.8249H100.789Z" fill="white"/>
<path d="M108.721 41.9982H107.682C106.6 41.9982 106.088 41.368 106.059 39.9697H106.615C106.615 40.8363 106.97 41.0528 107.782 41.0528H108.664C109.547 41.0528 109.86 40.7772 109.86 39.6545V38.7091C109.576 39.4182 109.29 39.5562 108.792 39.5562H107.696C106.515 39.5562 106.031 38.8077 106.031 37.0155V36.2868C106.031 34.4945 106.529 33.7461 107.711 33.7461H108.478C109.191 33.7461 109.633 33.8249 109.875 34.6915V33.8249H110.387V39.7529C110.387 41.2498 109.817 41.9982 108.721 41.9982ZM108.65 38.6896C109.505 38.6896 109.86 38.4137 109.86 37.1534V36.1489C109.86 34.9081 109.505 34.6127 108.65 34.6127H107.767C106.914 34.6127 106.558 34.8885 106.558 36.1489V37.1534C106.558 38.394 106.914 38.6896 107.767 38.6896H108.65Z" fill="white"/>
<path d="M114.695 31.3203H115.251V32.4625H114.695V31.3203ZM114.695 33.8412H115.251V39.8874H114.695V33.8412Z" fill="white"/>
<path d="M116.391 33.8249H116.945V34.9476C117.231 34.0415 117.786 33.7461 118.725 33.7461C120.12 33.7461 120.676 34.2582 120.676 35.9323V39.8711H120.12V36.1882C120.12 35.6367 120.105 35.2625 119.892 35.0067C119.707 34.7701 119.266 34.6325 118.582 34.6325C117.445 34.6325 116.96 35.046 116.96 36.2473V39.8515H116.405V33.8249H116.391Z" fill="white"/>
<path d="M121.742 33.8249H122.298V34.9476C122.583 34.0415 123.137 33.7461 124.078 33.7461C125.473 33.7461 126.027 34.2582 126.027 35.9323V39.8711H125.473V36.1882C125.473 35.6367 125.458 35.2625 125.245 35.0067C125.059 34.7701 124.618 34.6325 123.936 34.6325C122.796 34.6325 122.313 35.046 122.313 36.2473V39.8515H121.757V33.8249H121.742Z" fill="white"/>
<path d="M127 37.2715V36.3261C127 34.4945 127.485 33.7461 128.681 33.7461H129.89C131.101 33.7461 131.57 34.4945 131.57 36.3261V37.2715C131.57 39.1622 131.115 39.9301 129.89 39.9301H128.681C127.441 39.9301 127 39.1622 127 37.2715ZM129.733 39.044C130.716 39.044 131.001 38.7091 131.001 37.1729V36.464C131.001 34.9671 130.702 34.6325 129.733 34.6325H128.823C127.841 34.6325 127.556 34.9671 127.556 36.464V37.1729C127.556 38.7091 127.841 39.044 128.823 39.044H129.733Z" fill="white"/>
<path d="M132.016 33.8359H132.643L134.279 38.9762L135.93 33.8359H136.556L134.607 39.8821H133.908L132.016 33.8359Z" fill="white"/>
<path d="M141.256 35.9599V39.8594H140.716V39.0518C140.515 39.761 140.118 39.9382 139.478 39.9382H138.537C137.328 39.9382 136.914 39.4261 136.914 37.9687C136.914 36.5902 137.355 36.0978 138.524 36.0978H139.505C140.061 36.0978 140.459 36.2946 140.716 36.8067V35.9795C140.716 34.8963 140.402 34.6207 139.576 34.6207H138.737C137.982 34.6207 137.725 34.6993 137.725 35.4478V35.625H137.142V35.4676C137.142 34.2267 137.598 33.7344 138.652 33.7344H139.662C140.758 33.7344 141.256 34.4237 141.256 35.9599ZM140.701 37.7324C140.701 37.0628 140.331 36.9249 139.549 36.9249H138.708C137.84 36.9249 137.541 37.0431 137.541 37.9294C137.541 38.9337 137.769 39.0518 138.708 39.0518H139.549C140.331 39.0518 140.701 38.9337 140.701 38.2641V37.7324Z" fill="white"/>
<path d="M145.397 33.8433V34.6508H143.076V37.8216C143.076 39.0033 143.39 39.1215 144.115 39.1215C144.898 39.1215 145.027 38.8457 145.027 37.9004V37.1322H145.51V37.9004C145.51 39.4564 145.113 39.9683 143.988 39.9683C143.446 39.9683 143.061 39.8109 142.791 39.3776C142.549 38.964 142.536 38.4717 142.536 37.7823V34.6704H141.781V33.8631H142.536V32.4844H143.076V33.8631H145.397V33.8433Z" fill="white"/>
<path d="M146.328 31.3203H146.884V32.4625H146.328V31.3203ZM146.328 33.8412H146.884V39.8874H146.328V33.8412Z" fill="white"/>
<path d="M147.914 37.2715V36.3261C147.914 34.4945 148.397 33.7461 149.593 33.7461H150.804C152.013 33.7461 152.484 34.4945 152.484 36.3261V37.2715C152.484 39.1622 152.028 39.9301 150.804 39.9301H149.593C148.37 39.9301 147.914 39.1622 147.914 37.2715ZM150.662 39.044C151.643 39.044 151.928 38.7091 151.928 37.1729V36.464C151.928 34.9671 151.628 34.6325 150.662 34.6325H149.75C148.768 34.6325 148.483 34.9671 148.483 36.464V37.1729C148.483 38.7091 148.768 39.044 149.75 39.044H150.662Z" fill="white"/>
<path d="M153.477 33.8249H154.033V34.9476C154.317 34.0415 154.872 33.7461 155.812 33.7461C157.207 33.7461 157.762 34.2582 157.762 35.9323V39.8711H157.207V36.1882C157.207 35.6367 157.193 35.2625 156.979 35.0067C156.793 34.7701 156.352 34.6325 155.67 34.6325C154.53 34.6325 154.047 35.046 154.047 36.2473V39.8515H153.491V33.8249H153.477Z" fill="white"/>
<path d="M165.186 33.8433V34.6508H162.865V37.8216C162.865 39.0033 163.179 39.1215 163.904 39.1215C164.688 39.1215 164.816 38.8457 164.816 37.9004V37.1322H165.299V37.9004C165.299 39.4564 164.902 39.9683 163.777 39.9683C163.235 39.9683 162.852 39.8109 162.581 39.3776C162.34 38.964 162.325 38.4717 162.325 37.7823V34.6704H161.57V33.8631H162.325V32.4844H162.865V33.8631H165.186V33.8433Z" fill="white"/>
<path d="M166.078 31.3203H166.634V34.9441C166.919 34.038 167.473 33.7426 168.412 33.7426C169.807 33.7426 170.363 34.2548 170.363 35.9289V39.8676H169.807V36.1847C169.807 35.6137 169.78 35.259 169.581 35.0032C169.395 34.7669 168.954 34.629 168.27 34.629C167.132 34.629 166.647 35.0425 166.647 36.2438V39.8481H166.093V31.3203H166.078Z" fill="white"/>
<path d="M171.445 33.8918H171.985V34.7782C172.242 33.9116 172.683 33.7344 173.451 33.7344C174.605 33.7344 175.06 34.2267 175.06 35.7432V36.5507H174.534V35.9795C174.534 34.8963 174.277 34.6207 173.294 34.6207C172.412 34.6207 172 35.0343 172 36.0978V39.8398H171.445V33.8918Z" fill="white"/>
<path d="M175.719 37.2715V36.3261C175.719 34.4945 176.202 33.7461 177.398 33.7461H178.609C179.818 33.7461 180.288 34.4945 180.288 36.3261V37.2715C180.288 39.1622 179.832 39.9301 178.609 39.9301H177.398C176.16 39.9301 175.719 39.1622 175.719 37.2715ZM178.452 39.044C179.433 39.044 179.719 38.7091 179.719 37.1729V36.464C179.719 34.9671 179.42 34.6325 178.452 34.6325H177.54C176.559 34.6325 176.273 34.9671 176.273 36.464V37.1729C176.273 38.7091 176.559 39.044 177.54 39.044H178.452Z" fill="white"/>
<path d="M185.557 39.8513H185.016V38.7089C184.702 39.6936 184.19 39.9299 183.307 39.9299C181.87 39.9299 181.258 39.3785 181.258 37.7439V33.8049H181.812V37.4485C181.812 38.0393 181.841 38.3937 182.04 38.6498C182.241 38.9059 182.695 39.024 183.393 39.024C184.46 39.024 184.972 38.6105 184.972 37.5469V33.7852H185.543V39.8513H185.557Z" fill="white"/>
<path d="M189.238 41.9982H188.199C187.117 41.9982 186.603 41.368 186.576 39.9697H187.13C187.13 40.8363 187.486 41.0528 188.297 41.0528H189.18C190.062 41.0528 190.376 40.7772 190.376 39.6545V38.7091C190.092 39.4182 189.807 39.5562 189.309 39.5562H188.213C187.032 39.5562 186.547 38.8077 186.547 37.0155V36.2868C186.547 34.4945 187.045 33.7461 188.226 33.7461H188.996C189.707 33.7461 190.148 33.8249 190.391 34.6915V33.8249H190.903V39.7529C190.903 41.2498 190.349 41.9982 189.238 41.9982ZM189.18 38.6896C190.035 38.6896 190.391 38.4137 190.391 37.1534V36.1489C190.391 34.9081 190.035 34.6127 189.18 34.6127H188.297C187.444 34.6127 187.088 34.8885 187.088 36.1489V37.1534C187.088 38.394 187.444 38.6896 188.297 38.6896H189.18Z" fill="white"/>
<path d="M191.953 31.3203H192.509V34.9441C192.794 34.038 193.348 33.7426 194.287 33.7426C195.682 33.7426 196.238 34.2548 196.238 35.9289V39.8676H195.682V36.1847C195.682 35.6137 195.655 35.259 195.454 35.0032C195.27 34.7669 194.829 34.629 194.145 34.629C193.007 34.629 192.522 35.0425 192.522 36.2438V39.8481H191.968V31.3203H191.953Z" fill="white"/>
<path d="M202.887 31.3203H203.713L206.603 39.8676H205.949L205.294 37.977H201.336L200.696 39.8676H199.984L202.887 31.3203ZM204.995 37.0908L203.301 32.1869L201.635 37.0908H204.995Z" fill="white"/>
<path d="M207.211 39.8676V31.3203H207.824V39.8676H207.211Z" fill="white"/>
</svg>
