<svg width="208" height="40" viewBox="0 0 208 40" fill="none" xmlns="http://www.w3.org/2000/svg">
<path d="M0 24.5773V0H3.00854V24.5773H0Z" fill="#23336C"/>
<path d="M8.88281 7.20074H11.5916V10.4133C12.9571 7.8073 15.6659 6.96484 20.3063 6.96484C27.0894 6.96484 29.7982 8.41386 29.7982 13.2551V24.5777H27.0894V13.9965C27.0894 12.4127 26.9896 11.3568 25.9571 10.6155C25.0245 9.94151 22.8819 9.53714 19.5404 9.53714C14.0006 9.53714 11.5916 10.7166 11.5916 14.1988V24.5777H8.88281V7.20074Z" fill="#23336C"/>
<path d="M36.4361 9.67138H32.8281V7.20018H36.4361V5.95335C36.4361 1.79723 38.379 0 42.7197 0H47.0936V2.5049H42.8196C40.244 2.5049 39.1449 3.24625 39.1449 5.44787V7.20018H47.0936V9.67138H39.1449V24.5773H36.4361V9.67138Z" fill="#23336C"/>
<path d="M49.4766 0H52.2186V3.27996H49.4766V0ZM49.4766 7.20018H52.2186V24.5773H49.4766V7.20018Z" fill="#23336C"/>
<path d="M57.6875 7.20074H60.3963V10.4133C61.7618 7.8073 64.4706 6.96484 69.111 6.96484C75.8941 6.96484 78.6028 8.41386 78.6028 13.2551V24.5777H75.8941V13.9965C75.8941 12.4127 75.7942 11.3568 74.7617 10.6155C73.8292 9.94151 71.6865 9.53714 68.345 9.53714C62.8053 9.53714 60.3963 10.7166 60.3963 14.1988V24.5777H57.6875V7.20074Z" fill="#23336C"/>
<path d="M83.9375 0H86.6796V3.27996H83.9375V0ZM83.9375 7.20018H86.6796V24.5773H83.9375V7.20018Z" fill="#23336C"/>
<path d="M112.322 13.3563V24.5777H109.714V22.275C108.714 24.3306 106.805 24.8137 103.663 24.8137H99.0894C93.1722 24.8137 91.1406 23.3309 91.1406 19.1636C91.1406 15.176 93.2832 13.7943 99.0227 13.7943H103.83C106.572 13.7943 108.47 14.3672 109.714 15.8499V13.4798C109.714 10.3347 108.181 9.5596 104.163 9.5596H100.089C96.4139 9.5596 95.1816 9.79549 95.1816 11.9297V12.4352H92.3063V11.9634C92.3063 8.38017 94.5488 6.96484 99.6555 6.96484H104.596C109.891 6.96484 112.322 8.93057 112.322 13.3563ZM109.558 18.4559C109.558 16.5351 107.76 16.1532 103.907 16.1532H99.7999C95.5591 16.1532 94.1158 16.4902 94.1158 19.0288C94.1158 21.9044 95.2482 22.2414 99.7999 22.2414H103.907C107.749 22.2414 109.558 21.9044 109.558 19.9724V18.4559Z" fill="#23336C"/>
<path d="M132.607 7.20246V9.53887H121.283V18.6599C121.283 22.0745 122.782 22.3779 126.357 22.3779C130.164 22.3779 130.797 21.5691 130.797 18.862V16.6267H133.173V18.862C133.173 23.3215 131.197 24.8154 125.724 24.8154C123.049 24.8154 121.184 24.3773 119.907 23.0855C118.708 21.9061 118.675 20.4459 118.675 18.4914V9.53887H115V7.20246H118.675V3.21484H121.317V7.20246H132.607Z" fill="#23336C"/>
<path d="M157.987 15.1374C157.987 15.5755 157.987 16.0136 157.953 16.4853H139.181V17.4288C139.181 21.0121 140.613 22.36 145.097 22.36H149.571C153.347 22.36 155.156 21.4501 155.156 19.417V19.2485H157.998V19.6867C157.998 23.0003 155.356 24.7863 150.215 24.7863H145.076C138.859 24.7863 136.461 22.6184 136.461 17.2828V14.5084C136.461 9.10542 138.837 6.9375 145.076 6.9375H149.349C155.689 6.95997 157.987 8.95939 157.987 15.1374ZM155.123 13.9916V13.5873C155.123 10.1388 153.458 9.49856 149.272 9.49856H145.032C140.958 9.49856 139.181 10.5095 139.181 13.9916H155.123Z" fill="#23336C"/>
<path d="M174.361 9.50343H170.354C166.647 9.50343 164.77 10.4133 164.77 13.4237V17.445C164.77 21.2978 166.236 22.2414 170.421 22.2414H174.495C178.537 22.2414 180.101 21.4326 180.101 18.2201V18.0179H182.676V18.4896C182.676 22.9153 180.368 24.8137 175.128 24.8137H170.22C164.714 24.8137 162.039 22.6794 162.039 18.0853V13.6933C162.039 9.09906 164.681 6.96484 170.22 6.96484H174.295C179.935 6.96484 182.443 8.48126 182.443 12.7721V13.2103H179.902C179.868 9.90782 178.403 9.50343 174.361 9.50343Z" fill="#23336C"/>
<path d="M187.086 0H189.795V10.4127C191.16 7.80675 193.869 6.96429 198.51 6.96429C205.293 6.96429 208.002 8.41331 208.002 13.2547V24.5773H205.293V13.996C205.293 12.3448 205.126 11.3226 204.161 10.6149C203.261 9.94097 201.119 9.53658 197.743 9.53658C192.193 9.53658 189.795 10.716 189.795 14.1982V24.5773H187.086V0Z" fill="#23336C"/>
<path d="M77.9415 35.6019C77.9415 35.7299 77.9415 35.8578 77.9415 35.986H74.5085V36.258C74.5085 37.2663 74.7756 37.6503 75.5893 37.6503H76.403C77.0897 37.6503 77.4201 37.3944 77.4201 36.8181V36.7701H77.9415V36.8983C77.9415 37.8264 77.4584 38.3386 76.5175 38.3386H75.5766C74.445 38.3386 74 37.7304 74 36.21V35.4258C74 33.8894 74.4323 33.2812 75.5766 33.2812H76.3649C77.5219 33.2812 77.9415 33.8414 77.9415 35.6019ZM77.4201 35.2657V35.1538C77.4201 34.1775 77.1151 34.0015 76.3522 34.0015H75.5766C74.8264 34.0015 74.5085 34.2895 74.5085 35.2657H77.4201Z" fill="#23336C"/>
<path d="M78.7891 38.2746V33.3612H79.2723V33.9855C79.4757 33.4253 79.9207 33.2973 80.6836 33.2973C81.4973 33.2973 81.9551 33.4572 82.1585 34.1935C82.3619 33.5693 82.8196 33.2812 83.5317 33.2812C84.7522 33.2812 85.2482 33.7454 85.2482 35.0737V38.2746H84.7903V35.2818C84.7903 34.8176 84.7776 34.5135 84.5869 34.3215C84.4343 34.1455 84.0783 34.0335 83.5571 34.0335C82.7051 34.0335 82.311 34.3534 82.311 35.2338V38.2746H81.8279V35.2177C81.8279 34.2735 81.6118 34.0174 80.6327 34.0174C79.6791 34.0174 79.2723 34.3536 79.2723 35.2978V38.2746H78.7891Z" fill="#23336C"/>
<path d="M88.6239 33.2973C89.7301 33.2973 90.1242 33.9214 90.1242 35.4577V36.226C90.1242 37.7144 89.6918 38.3226 88.6239 38.3226H87.6576C87.1999 38.3226 86.8947 38.1305 86.6785 37.6344V39.9069H86.1953V33.3453H86.6277V34.1455C86.8184 33.4413 87.1743 33.2812 87.7848 33.2812H88.6239V33.2973ZM86.6785 35.5538V36.13C86.6785 37.3464 86.9328 37.6184 87.8102 37.6184H88.5094C89.3868 37.6184 89.641 37.3464 89.641 36.13V35.5538C89.641 34.3054 89.3868 34.0174 88.5094 34.0174H87.8102C86.9201 34.0174 86.6785 34.3054 86.6785 35.5538Z" fill="#23336C"/>
<path d="M90.8828 36.1578V35.3895C90.8828 33.9012 91.3152 33.293 92.3832 33.293H93.464C94.5446 33.293 94.9642 33.9012 94.9642 35.3895V36.1578C94.9642 37.6941 94.5573 38.3182 93.464 38.3182H92.3832C91.2897 38.3182 90.8828 37.6941 90.8828 36.1578ZM93.3368 37.5981C94.2142 37.5981 94.4684 37.326 94.4684 36.0777V35.5016C94.4684 34.2852 94.2013 34.0132 93.3368 34.0132H92.5231C91.6457 34.0132 91.3915 34.2852 91.3915 35.5016V36.0777C91.3915 37.326 91.6457 37.5981 92.5231 37.5981H93.3368Z" fill="#23336C"/>
<path d="M95.375 33.3633H95.9472L97.1296 37.5883L98.0832 33.3633H98.8459L99.7995 37.5883L101.033 33.3633H101.58L100.105 38.2765H99.4181L98.4646 34.0354L97.4728 38.2765H96.7863L95.375 33.3633Z" fill="#23336C"/>
<path d="M105.926 35.6019C105.926 35.7299 105.926 35.8578 105.926 35.986H102.493V36.258C102.493 37.2663 102.76 37.6503 103.574 37.6503H104.387C105.074 37.6503 105.405 37.3944 105.405 36.8181V36.7701H105.926V36.8983C105.926 37.8264 105.443 38.3386 104.502 38.3386H103.561C102.429 38.3386 101.984 37.7304 101.984 36.21V35.4258C101.984 33.8894 102.417 33.2812 103.561 33.2812H104.349C105.494 33.2812 105.926 33.8414 105.926 35.6019ZM105.392 35.2657V35.1538C105.392 34.1775 105.087 34.0015 104.324 34.0015H103.548C102.798 34.0015 102.48 34.2895 102.48 35.2657H105.392Z" fill="#23336C"/>
<path d="M106.763 33.4092H107.246V34.1295C107.475 33.4253 107.869 33.2812 108.555 33.2812C109.585 33.2812 109.992 33.6814 109.992 34.9136V35.5698H109.522V35.1056C109.522 34.2255 109.293 34.0015 108.416 34.0015C107.627 34.0015 107.259 34.3376 107.259 35.2018V38.2426H106.75V33.4092H106.763Z" fill="#23336C"/>
<path d="M110.703 31.3203H111.199V32.2485H110.703V31.3203ZM110.703 33.3688H111.199V38.282H110.703V33.3688Z" fill="#23336C"/>
<path d="M112.219 33.357H112.715V34.2693C112.969 33.533 113.465 33.293 114.304 33.293C115.55 33.293 116.045 33.7091 116.045 35.0695V38.2702H115.55V35.2774C115.55 34.8293 115.537 34.5252 115.346 34.3173C115.182 34.1251 114.788 34.0132 114.177 34.0132C113.16 34.0132 112.727 34.3493 112.727 35.3254V38.2543H112.231V33.357H112.219Z" fill="#23336C"/>
<path d="M119.301 39.9988H118.373C117.407 39.9988 116.949 39.4866 116.923 38.3503H117.42C117.42 39.0545 117.737 39.2305 118.462 39.2305H119.25C120.039 39.2305 120.319 39.0065 120.319 38.0942V37.326C120.065 37.9022 119.809 38.0143 119.364 38.0143H118.386C117.33 38.0143 116.898 37.4061 116.898 35.9497V35.3576C116.898 33.9012 117.343 33.293 118.399 33.293H119.084C119.721 33.293 120.115 33.357 120.332 34.0612V33.357H120.789V38.1742C120.789 39.3906 120.28 39.9988 119.301 39.9988ZM119.237 37.3101C120.001 37.3101 120.319 37.086 120.319 36.0618V35.2455C120.319 34.2372 120.001 33.9972 119.237 33.9972H118.449C117.687 33.9972 117.369 34.2213 117.369 35.2455V36.0618C117.369 37.0699 117.687 37.3101 118.449 37.3101H119.237Z" fill="#23336C"/>
<path d="M124.641 31.3203H125.137V32.2485H124.641V31.3203ZM124.641 33.3688H125.137V38.282H124.641V33.3688Z" fill="#23336C"/>
<path d="M126.156 33.357H126.651V34.2693C126.907 33.533 127.402 33.293 128.241 33.293C129.487 33.293 129.984 33.7091 129.984 35.0695V38.2702H129.487V35.2774C129.487 34.8293 129.474 34.5252 129.283 34.3173C129.119 34.1251 128.725 34.0132 128.114 34.0132C127.098 34.0132 126.664 34.3493 126.664 35.3254V38.2543H126.169V33.357H126.156Z" fill="#23336C"/>
<path d="M130.938 33.357H131.434V34.2693C131.688 33.533 132.183 33.293 133.024 33.293C134.27 33.293 134.765 33.7091 134.765 35.0695V38.2702H134.27V35.2774C134.27 34.8293 134.257 34.5252 134.066 34.3173C133.9 34.1251 133.506 34.0132 132.897 34.0132C131.879 34.0132 131.447 34.3493 131.447 35.3254V38.2543H130.95V33.357H130.938Z" fill="#23336C"/>
<path d="M135.633 36.1578V35.3895C135.633 33.9012 136.066 33.293 137.134 33.293H138.214C139.296 33.293 139.714 33.9012 139.714 35.3895V36.1578C139.714 37.6941 139.309 38.3182 138.214 38.3182H137.134C136.027 38.3182 135.633 37.6941 135.633 36.1578ZM138.074 37.5981C138.952 37.5981 139.206 37.326 139.206 36.0777V35.5016C139.206 34.2852 138.939 34.0132 138.074 34.0132H137.261C136.384 34.0132 136.129 34.2852 136.129 35.5016V36.0777C136.129 37.326 136.384 37.5981 137.261 37.5981H138.074Z" fill="#23336C"/>
<path d="M140.109 33.3633H140.67L142.131 37.5403L143.606 33.3633H144.165L142.424 38.2765H141.8L140.109 33.3633Z" fill="#23336C"/>
<path d="M148.362 35.0898V38.2585H147.88V37.6023C147.701 38.1785 147.346 38.3226 146.774 38.3226H145.934C144.854 38.3226 144.484 37.9064 144.484 36.7221C144.484 35.6019 144.879 35.2018 145.922 35.2018H146.799C147.295 35.2018 147.651 35.3617 147.88 35.7779V35.1056C147.88 34.2255 147.6 34.0015 146.862 34.0015H146.113C145.439 34.0015 145.209 34.0654 145.209 34.6736V34.8176H144.688V34.6897C144.688 33.6814 145.095 33.2812 146.036 33.2812H146.939C147.918 33.2812 148.362 33.8414 148.362 35.0898ZM147.867 36.5301C147.867 35.986 147.536 35.8739 146.838 35.8739H146.087C145.312 35.8739 145.045 35.9699 145.045 36.6902C145.045 37.5063 145.248 37.6023 146.087 37.6023H146.838C147.536 37.6023 147.867 37.5063 147.867 36.9622V36.5301Z" fill="#23336C"/>
<path d="M152.066 33.3699V34.0261H149.992V36.6027C149.992 37.563 150.272 37.659 150.921 37.659C151.62 37.659 151.735 37.4349 151.735 36.6668V36.0425H152.167V36.6668C152.167 37.9312 151.812 38.3472 150.807 38.3472C150.323 38.3472 149.979 38.2192 149.738 37.8671C149.522 37.5311 149.51 37.131 149.51 36.5708V34.042H148.836V33.386H149.51V32.2656H149.992V33.386H152.066V33.3699Z" fill="#23336C"/>
<path d="M152.898 31.3203H153.395V32.2485H152.898V31.3203ZM152.898 33.3688H153.395V38.282H152.898V33.3688Z" fill="#23336C"/>
<path d="M154.312 36.1578V35.3895C154.312 33.9012 154.744 33.293 155.813 33.293H156.894C157.974 33.293 158.394 33.9012 158.394 35.3895V36.1578C158.394 37.6941 157.987 38.3182 156.894 38.3182H155.813C154.72 38.3182 154.312 37.6941 154.312 36.1578ZM156.767 37.5981C157.643 37.5981 157.897 37.326 157.897 36.0777V35.5016C157.897 34.2852 157.63 34.0132 156.767 34.0132H155.953C155.075 34.0132 154.821 34.2852 154.821 35.5016V36.0777C154.821 37.326 155.075 37.5981 155.953 37.5981H156.767Z" fill="#23336C"/>
<path d="M159.281 33.357H159.778V34.2693C160.032 33.533 160.527 33.293 161.367 33.293C162.613 33.293 163.109 33.7091 163.109 35.0695V38.2702H162.613V35.2774C162.613 34.8293 162.6 34.5252 162.41 34.3173C162.244 34.1251 161.85 34.0132 161.24 34.0132C160.223 34.0132 159.791 34.3493 159.791 35.3254V38.2543H159.294V33.357H159.281Z" fill="#23336C"/>
<path d="M169.738 33.3699V34.0261H167.664V36.6027C167.664 37.563 167.944 37.659 168.593 37.659C169.293 37.659 169.407 37.4349 169.407 36.6668V36.0425H169.839V36.6668C169.839 37.9312 169.483 38.3472 168.479 38.3472C167.995 38.3472 167.653 38.2192 167.41 37.8671C167.195 37.5311 167.182 37.131 167.182 36.5708V34.042H166.508V33.386H167.182V32.2656H167.664V33.386H169.738V33.3699Z" fill="#23336C"/>
<path d="M170.539 31.3203H171.036V34.2651C171.29 33.5287 171.785 33.2887 172.624 33.2887C173.87 33.2887 174.366 33.7049 174.366 35.0653V38.266H173.87V35.2732C173.87 34.8092 173.845 34.521 173.668 34.3131C173.502 34.1211 173.108 34.009 172.497 34.009C171.48 34.009 171.047 34.345 171.047 35.3212V38.2501H170.552V31.3203H170.539Z" fill="#23336C"/>
<path d="M175.328 33.4092H175.81V34.1295C176.04 33.4253 176.434 33.2812 177.12 33.2812C178.151 33.2812 178.556 33.6814 178.556 34.9136V35.5698H178.087V35.1056C178.087 34.2255 177.858 34.0015 176.98 34.0015C176.191 34.0015 175.823 34.3376 175.823 35.2018V38.2426H175.328V33.4092Z" fill="#23336C"/>
<path d="M179.148 36.1578V35.3895C179.148 33.9012 179.58 33.293 180.649 33.293H181.73C182.81 33.293 183.23 33.9012 183.23 35.3895V36.1578C183.23 37.6941 182.823 38.3182 181.73 38.3182H180.649C179.543 38.3182 179.148 37.6941 179.148 36.1578ZM181.59 37.5981C182.466 37.5981 182.722 37.326 182.722 36.0777V35.5016C182.722 34.2852 182.455 34.0132 181.59 34.0132H180.776C179.899 34.0132 179.644 34.2852 179.644 35.5016V36.0777C179.644 37.326 179.899 37.5981 180.776 37.5981H181.59Z" fill="#23336C"/>
<path d="M187.934 38.2536H187.45V37.3253C187.17 38.1255 186.713 38.3175 185.924 38.3175C184.641 38.3175 184.094 37.8694 184.094 36.5411V33.3403H184.589V36.3011C184.589 36.7812 184.615 37.0692 184.793 37.2773C184.972 37.4854 185.377 37.5814 186.001 37.5814C186.954 37.5814 187.412 37.2453 187.412 36.3811V33.3242H187.921V38.2536H187.934Z" fill="#23336C"/>
<path d="M191.224 39.9988H190.296C189.33 39.9988 188.871 39.4866 188.846 38.3503H189.341C189.341 39.0545 189.659 39.2305 190.384 39.2305H191.172C191.96 39.2305 192.241 39.0065 192.241 38.0942V37.326C191.986 37.9022 191.732 38.0143 191.288 38.0143H190.309C189.253 38.0143 188.82 37.4061 188.82 35.9497V35.3576C188.82 33.9012 189.265 33.293 190.32 33.293H191.008C191.643 33.293 192.037 33.357 192.254 34.0612V33.357H192.711V38.1742C192.711 39.3906 192.216 39.9988 191.224 39.9988ZM191.172 37.3101C191.936 37.3101 192.254 37.086 192.254 36.0618V35.2455C192.254 34.2372 191.936 33.9972 191.172 33.9972H190.384C189.622 33.9972 189.304 34.2213 189.304 35.2455V36.0618C189.304 37.0699 189.622 37.3101 190.384 37.3101H191.172Z" fill="#23336C"/>
<path d="M193.648 31.3203H194.145V34.2651C194.399 33.5287 194.894 33.2887 195.733 33.2887C196.979 33.2887 197.476 33.7049 197.476 35.0653V38.266H196.979V35.2732C196.979 34.8092 196.955 34.521 196.776 34.3131C196.611 34.1211 196.217 34.009 195.606 34.009C194.59 34.009 194.157 34.345 194.157 35.3212V38.2501H193.661V31.3203H193.648Z" fill="#23336C"/>
<path d="M203.413 31.3203H204.151L206.733 38.266H206.148L205.563 36.7296H202.027L201.456 38.266H200.82L203.413 31.3203ZM205.296 36.0095L203.783 32.0245L202.294 36.0095H205.296Z" fill="#23336C"/>
<path d="M207.273 38.266V31.3203H207.821V38.266H207.273Z" fill="#23336C"/>
</svg>
